<svg width="18" height="18" viewBox="0 0 18 18" fill="none" xmlns="http://www.w3.org/2000/svg">
<path d="M6.50001 17.3334C6.27899 17.3334 6.06703 17.2456 5.91075 17.0893C5.75447 16.933 5.66667 16.721 5.66667 16.5V14H2.33334C1.89131 14 1.46739 13.8244 1.15483 13.5119C0.842266 13.1993 0.666672 12.7754 0.666672 12.3334V2.33335C0.666672 1.40835 1.41667 0.666687 2.33334 0.666687H15.6667C16.1087 0.666687 16.5326 0.842282 16.8452 1.15484C17.1577 1.4674 17.3333 1.89133 17.3333 2.33335V12.3334C17.3333 12.7754 17.1577 13.1993 16.8452 13.5119C16.5326 13.8244 16.1087 14 15.6667 14H10.5833L7.50001 17.0917C7.33334 17.25 7.12501 17.3334 6.91667 17.3334H6.50001ZM7.33334 12.3334V14.9L9.90001 12.3334H15.6667V2.33335H2.33334V12.3334H7.33334ZM4.00001 4.83335H14V6.50002H4.00001V4.83335ZM4.00001 8.16669H11.5V9.83335H4.00001V8.16669Z" fill="#12151F"/>
</svg>
