<svg width="165" height="30" viewBox="0 0 165 30" fill="none" xmlns="http://www.w3.org/2000/svg">
<path d="M31.0068 22.7627C31.0457 22.6704 31.0748 22.5926 31.1064 22.5197C33.1258 17.7992 35.1436 13.0778 37.1598 8.35562C37.1765 8.28735 37.2182 8.22782 37.2767 8.18872C37.3351 8.14962 37.406 8.13377 37.4755 8.14429C37.8423 8.15886 38.2043 8.15886 38.5759 8.14429C38.6391 8.13457 38.7035 8.1489 38.7566 8.18443C38.8097 8.21997 38.8475 8.27412 38.8626 8.33618C39.9962 11.0066 41.1362 13.6786 42.2828 16.3522L44.9232 22.5295C44.9548 22.6048 44.9839 22.6801 45.0252 22.7724H43.5678C43.1354 22.7724 43.1354 22.7724 42.9678 22.374C42.4261 21.0963 41.8795 19.8186 41.3427 18.536C41.326 18.4818 41.2909 18.4351 41.2435 18.404C41.196 18.373 41.1391 18.3595 41.0828 18.366C38.9986 18.366 36.9136 18.366 34.8278 18.366C34.6675 18.366 34.6165 18.4364 34.5631 18.5603C34.0019 19.906 33.4359 21.2493 32.8748 22.595C32.8604 22.6534 32.8248 22.7043 32.775 22.738C32.7252 22.7716 32.6647 22.7856 32.6052 22.7772C32.1412 22.7772 31.6773 22.7772 31.2133 22.7772C31.1502 22.7748 31.0894 22.7675 31.0068 22.7627ZM40.5727 16.6899L37.9662 10.5078L35.3525 16.6972L40.5727 16.6899Z" fill="#12151F"/>
<path d="M72.0442 20.0396L72.7559 21.3756C72.5543 21.5384 72.36 21.7157 72.1462 21.8614C71.345 22.3995 70.4307 22.7461 69.4742 22.8744C67.9787 23.1423 66.4379 22.9797 65.0313 22.4056C62.7893 21.4509 61.4314 19.7335 60.9529 17.3652C60.6079 15.6502 60.6735 13.9377 61.3634 12.3078C62.3836 9.90538 64.1763 8.45035 66.7949 8.10055C68.2241 7.87411 69.6878 8.03172 71.0361 8.55723C71.556 8.76959 72.037 9.06674 72.4596 9.43656L71.6531 10.7604C71.6271 10.7502 71.602 10.738 71.5778 10.724C70.3632 9.87623 69.0199 9.62603 67.577 9.71105C64.9245 9.86651 63.0273 11.9531 62.7188 14.4624C62.5325 15.6513 62.6649 16.8684 63.1026 17.9894C63.8897 19.855 65.3058 20.9432 67.3098 21.242C68.7074 21.4874 70.1467 21.2237 71.3665 20.4987C71.5924 20.3603 71.8037 20.2024 72.0442 20.0396Z" fill="#12151F"/>
<path d="M88.7031 22.765H87.1266V21.6039C87.0925 21.6285 87.06 21.6553 87.0294 21.6841C86.1768 22.6557 85.0861 22.9909 83.8206 22.8986C83.3605 22.8901 82.9111 22.758 82.5196 22.5161C82.1281 22.2742 81.8089 21.9314 81.5955 21.5237C81.3825 21.1506 81.2546 20.7349 81.2211 20.3065C81.1875 19.8781 81.2491 19.4476 81.4013 19.0458C81.5536 18.644 81.7928 18.2808 82.1019 17.9823C82.4109 17.6838 82.7822 17.4573 83.189 17.319C84.2607 16.9338 85.433 16.9338 86.5047 17.319C86.715 17.4043 86.9202 17.5016 87.1193 17.6105C87.095 16.8671 87.0707 16.153 86.7258 15.4777C86.4829 14.9919 86.0165 14.8024 85.5112 14.7368C84.542 14.6354 83.5642 14.8168 82.6959 15.2591L82.47 15.3611H82.419C82.2854 14.9579 82.1469 14.5474 82.023 14.1344C82.0109 14.0907 82.0886 13.9959 82.1469 13.9619C82.7689 13.5966 83.4577 13.3596 84.1728 13.2648C84.9274 13.1509 85.6965 13.1772 86.4416 13.3425C87.6707 13.6291 88.3314 14.4575 88.567 15.6502C88.6531 16.0985 88.697 16.5539 88.6982 17.0105C88.7128 18.8736 88.6982 20.7343 88.6982 22.5974C88.7031 22.6557 88.7031 22.7043 88.7031 22.765ZM87.1217 19.6606C87.1135 19.5296 87.1135 19.3982 87.1217 19.2671C87.1331 19.1961 87.12 19.1234 87.0847 19.0607C87.0494 18.9981 86.994 18.9493 86.9274 18.9222C86.4097 18.6218 85.8253 18.4548 85.227 18.4364C84.6856 18.3883 84.1426 18.5088 83.6724 18.7813C83.1161 19.1214 82.9437 19.6388 83.0432 20.2387C83.0697 20.5 83.1778 20.7462 83.3523 20.9425C83.5267 21.1387 83.7586 21.275 84.0149 21.3319C84.4713 21.4542 84.951 21.4605 85.4105 21.3502C85.8699 21.2399 86.2945 21.0165 86.6456 20.7003C86.976 20.4306 87.2019 20.1343 87.1096 19.6825C87.1128 19.6747 87.1168 19.6674 87.1217 19.6606Z" fill="#12151F"/>
<path d="M96.464 13.4179V14.9871H93.3693V22.7602H91.6956V22.5416C91.6956 18.9676 91.6956 15.3935 91.6956 11.8195C91.6863 11.2379 91.7682 10.6584 91.9385 10.1021C92.1065 9.5104 92.4612 8.98878 92.9497 8.61497C93.4382 8.24116 94.0344 8.03517 94.6494 8.02767C95.3211 7.96469 95.9982 8.06295 96.6243 8.3143C96.9231 8.4479 97.1976 8.63737 97.4915 8.80012L96.8964 10.0997C96.8405 10.0657 96.7943 10.0414 96.753 10.0122C96.4711 9.82173 96.1542 9.68887 95.8207 9.62134C95.4872 9.5538 95.1436 9.55292 94.8098 9.61873C94.5353 9.65233 94.2764 9.76406 94.0636 9.94062C93.8509 10.1172 93.6934 10.3511 93.6098 10.6147C93.4797 10.9789 93.3981 11.3587 93.3669 11.7442C93.328 12.2883 93.3669 12.8373 93.3669 13.4081L96.464 13.4179Z" fill="#12151F"/>
<path d="M58.9926 22.1505C58.4086 22.6271 57.6859 22.9015 56.9327 22.9327C56.4214 22.9797 55.9057 22.9227 55.417 22.765C55.0718 22.6445 54.7599 22.4441 54.5066 22.1803C54.2534 21.9165 54.0659 21.5967 53.9595 21.2469C53.7712 20.7248 53.6743 20.1743 53.6729 19.6194C53.6729 16.7263 53.6729 13.8308 53.6729 10.9377C53.6729 10.911 53.6729 10.8819 53.6729 10.8381H55.3222V13.4227H58.7521V14.9798H55.3344V15.2227C55.3344 16.4907 55.3344 17.7562 55.3344 19.0242C55.3352 19.3903 55.3759 19.7552 55.4558 20.1125C55.6988 21.1546 56.4275 21.5043 57.3821 21.327C57.7635 21.2242 58.135 21.0876 58.4922 20.9189L58.9926 22.1505Z" fill="#12151F"/>
<path d="M102.962 20.9238L103.448 22.1384C102.977 22.5312 102.406 22.7837 101.798 22.8671C101.19 22.976 100.564 22.9453 99.9692 22.7772C99.6027 22.6674 99.2693 22.4683 98.9988 22.1978C98.7283 21.9273 98.5292 21.5939 98.4194 21.2274C98.2316 20.7053 98.1347 20.1548 98.1328 19.5999C98.1328 16.7069 98.1328 13.8114 98.1328 10.9183C98.1328 10.8916 98.1328 10.8624 98.1328 10.8187H99.7821V13.4252H103.21V14.9822H99.7845V15.2251C99.7845 16.4931 99.7845 17.7587 99.7845 19.0267C99.7852 19.3928 99.826 19.7577 99.906 20.1149C100.149 21.1546 100.878 21.5068 101.835 21.3295C102.222 21.2284 102.599 21.0926 102.962 20.9238Z" fill="#12151F"/>
<path d="M48.477 22.7651H46.8252V13.4421H48.477V14.494C48.5911 14.3579 48.6689 14.251 48.749 14.1709C49.4316 13.3911 50.3134 13.1652 51.302 13.2867C51.5931 13.338 51.878 13.4194 52.1522 13.5296C52.1813 13.5503 52.2047 13.5782 52.22 13.6105C52.2353 13.6428 52.2421 13.6785 52.2396 13.7142C52.0696 14.2 51.8874 14.6713 51.7004 15.1717C51.2531 14.9108 50.7374 14.7914 50.2211 14.8292C49.845 14.8761 49.4879 15.0208 49.1853 15.2488C48.8827 15.4768 48.6451 15.7802 48.4964 16.1287C48.479 16.2027 48.4732 16.2789 48.4794 16.3546C48.4794 18.4048 48.4794 20.4542 48.4794 22.5027L48.477 22.7651Z" fill="#12151F"/>
<path d="M76.5259 22.7651H74.8741V13.4421H76.5259V14.494C76.6401 14.3579 76.7178 14.251 76.798 14.1709C77.4805 13.3911 78.3623 13.1652 79.351 13.2867C79.642 13.338 79.9269 13.4194 80.2011 13.5296C80.2303 13.5503 80.2537 13.5782 80.269 13.6105C80.2843 13.6428 80.291 13.6785 80.2886 13.7142C80.1186 14.2 79.9364 14.6713 79.7493 15.1717C79.3021 14.9108 78.7864 14.7914 78.27 14.8292C77.894 14.8761 77.5369 15.0208 77.2342 15.2488C76.9316 15.4768 76.6941 15.7802 76.5453 16.1287C76.5279 16.2027 76.5222 16.2789 76.5283 16.3546C76.5283 18.4048 76.5283 20.4542 76.5283 22.5027L76.5259 22.7651Z" fill="#12151F"/>
<path d="M4.245 6.99219C5.18154 9.35161 6.87122 11.0635 8.78599 12.5892C10.773 14.1733 12.9935 15.3683 15.2779 16.4549C16.434 17.0107 17.5706 17.6027 18.6878 18.2279C19.4068 18.6066 20.0273 19.1481 20.4997 19.8092C20.9693 20.5015 21.2271 21.3156 21.2418 22.152C21.2418 22.2131 21.2418 22.2743 21.2279 22.3549C20.6026 22.1298 19.9995 21.8963 19.3853 21.6907C15.4418 20.3706 11.49 19.0672 7.55209 17.7305C5.7318 17.1135 3.9393 16.4549 2.13013 15.7851C1.5861 15.549 1.05791 15.2779 0.548846 14.9737C0.438032 14.9117 0.336129 14.8351 0.245926 14.7458C0.0430547 14.5512 0.0263814 14.4151 0.220916 14.2205C0.568299 13.8732 0.932356 13.5563 1.29086 13.2284C1.34917 13.1742 1.4104 13.1231 1.47427 13.0756C1.77225 12.8728 2.00287 12.5856 2.13656 12.2509C2.27025 11.9162 2.30091 11.5492 2.22462 11.1969L2.27742 11.158C2.32834 11.2295 2.38308 11.2981 2.44139 11.3637C3.62052 12.5401 4.97294 13.5288 6.45158 14.2956C8.01045 15.1392 9.61874 15.8881 11.2677 16.5383C11.3218 16.5628 11.3827 16.5677 11.44 16.5522L11.2177 16.441C9.17968 15.4659 7.24022 14.297 5.4261 12.9505C4.31498 12.1204 3.3098 11.1572 2.43305 10.0825C2.24225 9.84054 2.07651 9.57982 1.93838 9.30437C1.84129 9.14115 1.80585 8.94857 1.83847 8.76148C1.8711 8.57439 1.96963 8.40517 2.11624 8.28445C2.48952 7.96947 2.88622 7.68333 3.3029 7.4285C3.60729 7.26308 3.92197 7.11735 4.245 6.99219Z" fill="#12151F"/>
<path d="M13.855 14.7818C13.4854 14.5845 13.1325 14.4067 12.7907 14.226C10.936 13.2367 9.22961 11.9916 7.72165 10.5271C6.87393 9.71517 6.14091 8.79142 5.54287 7.78138C5.24671 7.3159 5.09312 6.77398 5.101 6.22233C5.16764 5.63494 5.43112 5.0874 5.84857 4.66883C6.45164 4.00163 7.14473 3.42172 7.90785 2.94581C9.77616 1.74864 11.7706 0.760757 13.855 0V14.7818Z" fill="#12151F"/>
<path d="M1.26316 16.3909C5.98757 18.3362 10.9343 19.7257 15.8032 21.3487C17.4707 21.9045 19.1381 22.5159 20.8055 23.1106C21.2919 23.2829 21.3614 23.3886 21.3614 23.9221C21.3614 24.4557 21.3614 24.9198 21.3419 25.4173C21.3169 25.848 21.1891 25.9092 20.7694 25.8175C17.3317 25.0671 13.8968 24.3056 10.4535 23.5775C7.63833 22.9828 4.81203 22.4353 1.99127 21.8601C1.52717 21.7656 1.06585 21.6489 0.601742 21.521C0.137639 21.3932 -0.131931 21.1097 0.0653829 20.5873C0.262696 20.0648 0.543383 19.5368 0.743475 18.9976C0.965257 18.4319 1.1509 17.8527 1.29929 17.2635C1.32738 16.9723 1.31522 16.6787 1.26316 16.3909Z" fill="#12151F"/>
<path d="M1.84667 22.7633L4.14774 23.2191C7.18248 23.8166 10.22 24.3891 13.2464 25.0199C15.7142 25.534 18.1709 26.1121 20.6304 26.6735C21.1362 26.7902 21.2223 26.9124 21.2418 27.4266C21.2495 27.6484 21.2402 27.8704 21.214 28.0908C21.1695 28.4743 21.0111 28.5966 20.622 28.5632L18.446 28.3631L13.9078 27.9574L9.62806 27.56L4.11717 27.057C3.41685 26.993 2.71374 26.9319 2.01342 26.8596C1.60767 26.818 1.5243 26.6707 1.61045 26.2677C1.74941 25.6118 1.88836 24.9532 1.99674 24.289C2.07938 23.776 2.02768 23.2504 1.84667 22.7633Z" fill="#12151F"/>
<path d="M3.91983 27.899C4.26722 27.9241 4.58959 27.9407 4.91196 27.9685L9.50297 28.3465L14.3052 28.7578L18.7517 29.1496C19.1936 29.1885 19.6327 29.2441 20.0745 29.283C20.1968 29.283 20.2468 29.3442 20.2385 29.4581C20.2374 29.5691 20.2263 29.6798 20.2052 29.7888C20.2015 29.8211 20.1912 29.8523 20.175 29.8805C20.1589 29.9088 20.1371 29.9334 20.1111 29.9529C20.0851 29.9724 20.0554 29.9864 20.0237 29.994C19.9921 30.0016 19.9593 30.0027 19.9272 29.9972C19.8874 29.995 19.8475 29.995 19.8077 29.9972H4.72298C3.94762 29.9972 3.91705 29.9667 3.91705 29.1635C3.91983 28.7578 3.91983 28.3409 3.91983 27.899Z" fill="#12151F"/>
<path d="M115.69 22.8591H114.007V9H115.71L120.917 16.1077L125.906 9H127.51V22.8591H125.827V11.653L120.917 18.543H120.659L115.69 11.7124V22.8591Z" fill="black"/>
<path d="M138.035 20.6416L138.53 21.8889C137.672 22.6677 136.556 23.0571 135.184 23.0571C133.732 23.0571 132.577 22.6347 131.719 21.7899C130.848 20.9452 130.412 19.8167 130.412 18.4044C130.412 17.0713 130.821 15.9625 131.64 15.0782C132.445 14.1939 133.567 13.7517 135.005 13.7517C136.193 13.7517 137.177 14.1345 137.955 14.9C138.747 15.6524 139.143 16.6291 139.143 17.8302C139.143 18.213 139.11 18.5694 139.044 18.8993H132.194C132.26 19.7309 132.57 20.3842 133.124 20.8594C133.692 21.3346 134.418 21.5722 135.302 21.5722C136.464 21.5722 137.375 21.262 138.035 20.6416ZM134.926 15.2366C134.147 15.2366 133.501 15.4544 132.986 15.8899C132.484 16.3255 132.187 16.8997 132.095 17.6124H137.5C137.46 16.8733 137.21 16.2925 136.748 15.8701C136.299 15.4478 135.692 15.2366 134.926 15.2366Z" fill="black"/>
<path d="M149.409 22.8591H147.826V21.7305C147.034 22.5885 146.09 23.0175 144.994 23.0175C143.688 23.0175 142.645 22.6017 141.866 21.7701C141.087 20.9254 140.698 19.8233 140.698 18.4638C140.698 17.0779 141.153 15.9493 142.064 15.0782C142.988 14.1939 144.156 13.7517 145.569 13.7517C146.466 13.7517 147.218 13.9629 147.826 14.3852V9H149.409V22.8591ZM145.291 21.5326C146.268 21.5326 147.113 21.1366 147.826 20.3446V15.9295C147.086 15.4676 146.354 15.2366 145.628 15.2366C144.717 15.2366 143.945 15.5336 143.312 16.1275C142.691 16.7083 142.381 17.4738 142.381 18.4242C142.381 19.3745 142.645 20.1335 143.173 20.701C143.714 21.2554 144.42 21.5326 145.291 21.5326Z" fill="black"/>
<path d="M154.274 22.8591H152.69V13.9497H154.274V22.8591ZM152.492 10.6037C152.492 10.3265 152.591 10.1021 152.789 9.93054C152.987 9.74575 153.232 9.65336 153.522 9.65336C153.799 9.65336 154.03 9.74575 154.215 9.93054C154.4 10.1021 154.492 10.3265 154.492 10.6037C154.492 10.9073 154.4 11.1581 154.215 11.356C154.03 11.5408 153.799 11.6332 153.522 11.6332C153.232 11.6332 152.987 11.5408 152.789 11.356C152.591 11.1581 152.492 10.9073 152.492 10.6037Z" fill="black"/>
<path d="M158.028 15.8305L157.612 14.5634C158.496 14.0223 159.486 13.7517 160.582 13.7517C161.783 13.7517 162.654 14.0487 163.195 14.6426C163.736 15.2366 164.007 16.1539 164.007 17.3946V22.8591H162.502V21.7108C161.803 22.5687 160.852 22.9977 159.651 22.9977C158.833 22.9977 158.173 22.7535 157.671 22.2651C157.17 21.7635 156.919 21.0904 156.919 20.2456C156.919 19.3745 157.229 18.6882 157.849 18.1866C158.47 17.6718 159.282 17.4144 160.285 17.4144C161.222 17.4144 161.961 17.6058 162.502 17.9886C162.502 16.9855 162.364 16.2661 162.086 15.8305C161.809 15.395 161.275 15.1772 160.483 15.1772C159.678 15.1772 158.859 15.395 158.028 15.8305ZM160.205 21.5722C161.09 21.5722 161.855 21.1894 162.502 20.4238V19.2953C161.948 18.8993 161.281 18.7014 160.502 18.7014C159.961 18.7014 159.506 18.8333 159.136 19.0973C158.78 19.3481 158.602 19.7045 158.602 20.1665C158.602 20.602 158.74 20.9452 159.018 21.196C159.308 21.4468 159.704 21.5722 160.205 21.5722Z" fill="black"/>
<rect x="107.007" y="21" width="2" height="2" fill="black"/>
</svg>
