<svg width="20" height="20" viewBox="0 0 20 20" fill="none" xmlns="http://www.w3.org/2000/svg">
<circle cx="10" cy="10" r="10" fill="url(#paint0_linear_1_163)"/>
<path d="M5.67425 9.15512H6.45794C6.83113 9.15512 7.10762 9.06182 7.28743 8.87523C7.46724 8.68864 7.55714 8.44098 7.55714 8.13225C7.55714 7.8337 7.46724 7.60131 7.28743 7.43507C7.11102 7.26883 6.86675 7.18571 6.55463 7.18571C6.27304 7.18571 6.03726 7.26374 5.84727 7.4198C5.65729 7.57247 5.56229 7.77263 5.56229 8.02029H4.0916C4.0916 7.63354 4.19507 7.28749 4.40202 6.98216C4.61236 6.67343 4.90413 6.43256 5.27731 6.25953C5.65389 6.08651 6.06779 6 6.51901 6C7.3027 6 7.91676 6.18829 8.36119 6.56487C8.80562 6.93805 9.02784 7.45373 9.02784 8.11189C9.02784 8.45115 8.92436 8.76327 8.71741 9.04825C8.51046 9.33323 8.23906 9.55205 7.90319 9.70472C8.32048 9.854 8.6309 10.0779 8.83446 10.3765C9.04141 10.675 9.14488 11.0278 9.14488 11.4349C9.14488 12.0931 8.90401 12.6207 8.42226 13.0176C7.9439 13.4145 7.30948 13.613 6.51901 13.613C5.77942 13.613 5.17384 13.4179 4.70227 13.0278C4.23409 12.6376 4 12.122 4 11.4807H5.47069C5.47069 11.7589 5.57417 11.9862 5.78112 12.1627C5.99146 12.3391 6.2493 12.4273 6.55463 12.4273C6.90407 12.4273 7.17717 12.3357 7.37394 12.1525C7.57411 11.9659 7.67419 11.7199 7.67419 11.4146C7.67419 10.675 7.26708 10.3052 6.45285 10.3052H5.67425V9.15512Z" fill="white"/>
<path d="M10.3361 13.5112V6.10178H12.6159C13.2673 6.10178 13.8491 6.24936 14.3614 6.54451C14.877 6.83628 15.2791 7.25357 15.5674 7.79638C15.8558 8.33581 16 8.94987 16 9.63857V9.97952C16 10.6682 15.8575 11.2806 15.5725 11.8166C15.2909 12.3526 14.8923 12.7682 14.3766 13.0634C13.861 13.3586 13.2791 13.5078 12.6311 13.5112H10.3361ZM11.8627 7.33838V12.2848H12.6006C13.1977 12.2848 13.654 12.0897 13.9695 11.6996C14.285 11.3094 14.4462 10.7513 14.453 10.0253V9.63348C14.453 8.88032 14.2969 8.31036 13.9848 7.92361C13.6727 7.53346 13.2164 7.33838 12.6159 7.33838H11.8627Z" fill="white"/>
<rect x="4" y="4" width="12" height="12" fill="white" fill-opacity="0.01"/>
<defs>
<linearGradient id="paint0_linear_1_163" x1="20" y1="0" x2="0" y2="20" gradientUnits="userSpaceOnUse">
<stop stop-color="#CF02E1"/>
<stop offset="1" stop-color="#702EFF"/>
</linearGradient>
</defs>
</svg>
