<svg width="20" height="20" viewBox="0 0 20 20" fill="none" xmlns="http://www.w3.org/2000/svg">
<circle cx="10" cy="10" r="10" fill="url(#paint0_linear_1_179)"/>
<path d="M14.4201 5.08997L12.4551 5.47997L13.8251 7.24997L14.8101 7.04997L14.4201 5.08997ZM10.9851 5.76997L10.0001 5.96497L11.3751 7.72997L12.3551 7.53497L10.9851 5.76997ZM8.5351 6.24997L7.5501 6.45497L8.9251 8.21997L9.9051 8.02497L8.5351 6.24997ZM6.0801 6.74997L5.5901 6.84497C5.0501 6.94997 4.6951 7.47997 4.8051 8.01997L5.0001 8.99997L7.4501 8.51497L6.0801 6.74997ZM14.0001 9.99997V14H6.0001V9.99997H14.0001ZM15.0001 8.99997H5.0001V14C5.0001 14.555 5.4501 15 6.0001 15H14.0001C14.5551 15 15.0001 14.555 15.0001 14V8.99997Z" fill="white"/>
<defs>
<linearGradient id="paint0_linear_1_179" x1="20" y1="0" x2="0" y2="20" gradientUnits="userSpaceOnUse">
<stop stop-color="#2EB4FF"/>
<stop offset="1" stop-color="#025BE1"/>
</linearGradient>
</defs>
</svg>
