<svg width="20" height="20" viewBox="0 0 20 20" fill="none" xmlns="http://www.w3.org/2000/svg">
<circle cx="10" cy="10" r="10" fill="url(#paint0_linear_1_144)"/>
<path d="M10.2899 5.56006V5.56506C10.1349 5.56506 9.97994 5.61006 9.85494 5.69506C9.60494 5.87006 9.57494 6.16006 9.79994 6.34506L11.2299 7.50006L6.86494 7.51506H6.85994C6.49994 7.51506 6.14994 7.75006 6.07994 8.05006C5.99994 8.35506 6.24994 8.61006 6.62994 8.61006L8.84494 8.60506L4.87994 11.6501C4.49994 11.9351 4.38494 12.4101 4.61994 12.7101C4.85994 13.0151 5.36494 13.0151 5.74994 12.7101L7.89994 10.9451C7.89994 10.9451 7.86494 11.1851 7.86994 11.3251C7.86994 11.4701 7.91994 11.7501 7.98494 11.9651C8.12994 12.4301 8.37494 12.8551 8.71494 13.2301C9.06494 13.6151 9.49994 13.9251 9.99994 14.1451C10.5149 14.3801 11.0849 14.5001 11.6699 14.5001C12.2499 14.5001 12.8249 14.3751 13.3449 14.1401C13.8449 13.9201 14.2749 13.6051 14.6249 13.2201C14.9649 12.8451 15.2099 12.4151 15.3549 11.9551C15.4249 11.7201 15.4699 11.4851 15.4999 11.2501C15.4999 11.0151 15.4999 10.7801 15.4699 10.5451C15.4049 10.0901 15.2499 9.66006 14.9999 9.27006C14.7799 8.91506 14.4999 8.60006 14.1549 8.33506L10.7099 5.69006C10.5949 5.60506 10.4449 5.56006 10.2899 5.56006ZM11.6699 8.60506C12.2499 8.60506 12.7949 8.79506 13.2299 9.14506C13.4499 9.32506 13.6249 9.53506 13.7499 9.77006C13.8849 10.0001 13.9699 10.2751 13.9999 10.5551C14.0199 10.8351 13.9799 11.1151 13.8849 11.3851C13.7849 11.6551 13.6249 11.9051 13.4099 12.1301C12.9649 12.5801 12.3449 12.8401 11.6699 12.8401C10.9999 12.8401 10.3749 12.5851 9.92994 12.1351C9.71494 11.9151 9.55494 11.6601 9.45494 11.3901C9.35994 11.1251 9.31994 10.8451 9.34494 10.5601C9.36994 10.2801 9.45494 10.0151 9.58494 9.77506C9.71494 9.54006 9.89494 9.33006 10.1149 9.15006C10.5449 8.79506 11.0949 8.60506 11.6699 8.60506ZM11.7199 9.30506C11.3299 9.30506 10.9699 9.44506 10.7049 9.67006C10.4349 9.90006 10.2499 10.2201 10.2349 10.5901C10.2149 10.9651 10.3649 11.3151 10.6299 11.5751C10.8999 11.8401 11.2899 12.0001 11.7199 12.0001C12.1499 12.0001 12.5349 11.8401 12.8099 11.5751C13.0749 11.3151 13.2249 10.9651 13.2049 10.5901C13.1849 10.2201 12.9999 9.90006 12.7349 9.67006C12.4699 9.44506 12.1099 9.30506 11.7199 9.30506Z" fill="white"/>
<defs>
<linearGradient id="paint0_linear_1_144" x1="20" y1="0" x2="0" y2="20" gradientUnits="userSpaceOnUse">
<stop stop-color="#FF9838"/>
<stop offset="1" stop-color="#E65403"/>
</linearGradient>
</defs>
</svg>
