<svg width="20" height="20" viewBox="0 0 20 20" fill="none" xmlns="http://www.w3.org/2000/svg">
<circle cx="10" cy="10" r="10" fill="url(#paint0_linear_1_187)"/>
<path d="M10.0001 8H6.00006C5.73484 8 5.48049 8.10536 5.29295 8.29289C5.10542 8.48043 5.00006 8.73478 5.00006 9V11C5.00006 11.2652 5.10542 11.5196 5.29295 11.7071C5.48049 11.8946 5.73484 12 6.00006 12H6.50006V14C6.50006 14.1326 6.55274 14.2598 6.64651 14.3536C6.74028 14.4473 6.86745 14.5 7.00006 14.5H8.00006C8.13267 14.5 8.25985 14.4473 8.35361 14.3536C8.44738 14.2598 8.50006 14.1326 8.50006 14V12H10.0001L12.5001 14V6L10.0001 8ZM11.5001 11.8L10.5001 11H6.00006V9H10.5001L11.5001 8.2V11.8ZM14.7501 10C14.7501 10.855 14.2701 11.63 13.5001 12V8C14.2651 8.375 14.7501 9.15 14.7501 10Z" fill="white"/>
<defs>
<linearGradient id="paint0_linear_1_187" x1="20" y1="0" x2="0" y2="20" gradientUnits="userSpaceOnUse">
<stop stop-color="#02E191"/>
<stop offset="1" stop-color="#006D9C"/>
</linearGradient>
</defs>
</svg>
