<svg width="21" height="21" viewBox="0 0 21 21" fill="none" xmlns="http://www.w3.org/2000/svg">
<path d="M10.5 0.125C4.77087 0.125 0.083374 4.80208 0.083374 10.5625C0.083374 15.7708 3.89587 20.0937 8.87504 20.875V13.5833H6.22921V10.5625H8.87504V8.26042C8.87504 5.64583 10.4271 4.20833 12.8125 4.20833C13.948 4.20833 15.1355 4.40625 15.1355 4.40625V6.97917H13.823C12.5313 6.97917 12.125 7.78125 12.125 8.60417V10.5625H15.0209L14.5521 13.5833H12.125V20.875C14.5797 20.4873 16.8148 19.2349 18.427 17.3438C20.0393 15.4527 20.9223 13.0475 20.9167 10.5625C20.9167 4.80208 16.2292 0.125 10.5 0.125Z" fill="#661FFF"/>
</svg>
