<svg width="23" height="18" viewBox="0 0 23 18" fill="none" xmlns="http://www.w3.org/2000/svg">
<path d="M22.3958 2.24996C21.5937 2.61454 20.7291 2.85413 19.8333 2.96871C20.75 2.41663 21.4583 1.54163 21.7916 0.489543C20.927 1.01038 19.9687 1.37496 18.9583 1.58329C18.1354 0.687459 16.9791 0.166626 15.6666 0.166626C13.2187 0.166626 11.2187 2.16663 11.2187 4.63538C11.2187 4.98954 11.2604 5.33329 11.3333 5.65621C7.62496 5.46871 4.32288 3.68746 2.12496 0.989543C1.73954 1.64579 1.52079 2.41663 1.52079 3.22913C1.52079 4.78121 2.30204 6.15621 3.51038 6.93746C2.77079 6.93746 2.08329 6.72913 1.47913 6.41663C1.47913 6.41663 1.47913 6.41663 1.47913 6.44788C1.47913 8.61454 3.02079 10.427 5.06246 10.8333C4.68746 10.9375 4.29163 10.9895 3.88538 10.9895C3.60413 10.9895 3.32288 10.9583 3.05204 10.9062C3.61454 12.6666 5.24996 13.9791 7.21871 14.0104C5.69788 15.2187 3.77079 15.927 1.66663 15.927C1.31246 15.927 0.958293 15.9062 0.604126 15.8645C2.58329 17.1354 4.93746 17.875 7.45829 17.875C15.6666 17.875 20.177 11.0625 20.177 5.15621C20.177 4.95829 20.177 4.77079 20.1666 4.57288C21.0416 3.94788 21.7916 3.15621 22.3958 2.24996Z" fill="#661FFF"/>
</svg>
