<svg width="18" height="18" viewBox="0 0 18 18" fill="none" xmlns="http://www.w3.org/2000/svg">
<path d="M9.83331 0.69165C13.775 1.08332 16.9166 4.20832 17.2916 8.16665C17.75 12.75 14.4166 16.8167 9.83331 17.275V15.6083C12.8666 15.25 15.25 12.8417 15.6333 9.80832C16.0833 6.14998 13.4916 2.82498 9.83331 2.37498V0.708317V0.69165ZM8.16665 0.71665V2.38332C6.97498 2.54998 5.84998 3.03332 4.91665 3.78332L3.72498 2.54998C4.99165 1.49998 6.54165 0.874984 8.16665 0.71665ZM2.54998 3.72498L3.74165 4.91665C2.99998 5.85832 2.53331 6.98332 2.37498 8.16665H0.708313C0.87498 6.53332 1.49998 4.99165 2.54998 3.72498ZM0.716646 9.83332H2.38331C2.53331 11.0167 3.00831 12.1417 3.74165 13.0833L2.55831 14.275C1.52498 13.0083 0.883313 11.4667 0.716646 9.83332ZM4.91665 14.3083C5.85831 15.0417 6.98331 15.5167 8.16665 15.6667V17.3333C6.53331 17.1583 4.98331 16.5 3.72498 15.45L4.91665 14.3083Z" fill="black" fill-opacity="0.7"/>
</svg>
