<svg width="20" height="20" viewBox="0 0 20 20" fill="none" xmlns="http://www.w3.org/2000/svg">
<circle cx="10" cy="10" r="10" fill="url(#paint0_linear_1_153)"/>
<path d="M7 8.5H8V9.5H9V10.5H8V11.5H7V10.5H6V9.5H7V8.5ZM13.25 8.5C13.4489 8.5 13.6397 8.57902 13.7803 8.71967C13.921 8.86032 14 9.05109 14 9.25C14 9.44891 13.921 9.63968 13.7803 9.78033C13.6397 9.92098 13.4489 10 13.25 10C13.0511 10 12.8603 9.92098 12.7197 9.78033C12.579 9.63968 12.5 9.44891 12.5 9.25C12.5 9.05109 12.579 8.86032 12.7197 8.71967C12.8603 8.57902 13.0511 8.5 13.25 8.5ZM11.75 10C11.9489 10 12.1397 10.079 12.2803 10.2197C12.421 10.3603 12.5 10.5511 12.5 10.75C12.5 10.9489 12.421 11.1397 12.2803 11.2803C12.1397 11.421 11.9489 11.5 11.75 11.5C11.5511 11.5 11.3603 11.421 11.2197 11.2803C11.079 11.1397 11 10.9489 11 10.75C11 10.5511 11.079 10.3603 11.2197 10.2197C11.3603 10.079 11.5511 10 11.75 10ZM12.5 6.5C13.4283 6.5 14.3185 6.86875 14.9749 7.52513C15.6313 8.1815 16 9.07174 16 10C16 10.9283 15.6313 11.8185 14.9749 12.4749C14.3185 13.1313 13.4283 13.5 12.5 13.5C11.52 13.5 10.635 13.1 10 12.45C9.365 13.1 8.48 13.5 7.5 13.5C6.57174 13.5 5.6815 13.1313 5.02513 12.4749C4.36875 11.8185 4 10.9283 4 10C4 9.07174 4.36875 8.1815 5.02513 7.52513C5.6815 6.86875 6.57174 6.5 7.5 6.5H12.5ZM7.5 7.5C6.83696 7.5 6.20107 7.76339 5.73223 8.23223C5.26339 8.70107 5 9.33696 5 10C5 10.663 5.26339 11.2989 5.73223 11.7678C6.20107 12.2366 6.83696 12.5 7.5 12.5C8.32 12.5 9.045 12.105 9.5 11.5H10.5C10.955 12.105 11.68 12.5 12.5 12.5C13.163 12.5 13.7989 12.2366 14.2678 11.7678C14.7366 11.2989 15 10.663 15 10C15 9.33696 14.7366 8.70107 14.2678 8.23223C13.7989 7.76339 13.163 7.5 12.5 7.5H7.5Z" fill="white"/>
<defs>
<linearGradient id="paint0_linear_1_153" x1="20" y1="0" x2="0" y2="20" gradientUnits="userSpaceOnUse">
<stop stop-color="#2ECDFF"/>
<stop offset="1" stop-color="#0091BF"/>
</linearGradient>
</defs>
</svg>
