<svg width="20" height="20" viewBox="0 0 20 20" fill="none" xmlns="http://www.w3.org/2000/svg">
<circle cx="10" cy="10" r="10" fill="url(#paint0_linear_1_172)"/>
<path d="M9.23964 13.5304H4.14795V12.5202L6.55094 9.95906C6.88086 9.59853 7.12405 9.28391 7.28051 9.01521C7.44037 8.74651 7.5203 8.49142 7.5203 8.24993C7.5203 7.92001 7.43697 7.66151 7.27031 7.47444C7.10365 7.28397 6.86556 7.18874 6.55604 7.18874C6.22272 7.18874 5.95912 7.30438 5.76525 7.53567C5.57478 7.76355 5.47955 8.06456 5.47955 8.4387H4C4 7.98633 4.10714 7.57308 4.32142 7.19894C4.5391 6.8248 4.84521 6.5323 5.23976 6.32142C5.6343 6.10714 6.08157 6 6.58155 6C7.34684 6 7.94036 6.18367 8.36211 6.551C8.78727 6.91834 8.99985 7.43703 8.99985 8.10708C8.99985 8.47441 8.90461 8.84855 8.71414 9.22949C8.52367 9.61043 8.19715 10.0543 7.73458 10.5611L6.04586 12.3416H9.23964V13.5304Z" fill="white"/>
<path d="M10.3216 13.5304V6.10204H12.6072C13.2603 6.10204 13.8436 6.24999 14.3572 6.5459C14.8742 6.83841 15.2772 7.25676 15.5663 7.80097C15.8554 8.34177 16 8.95739 16 9.64785V9.98967C16 10.6801 15.8571 11.2941 15.5714 11.8315C15.2891 12.3689 14.8895 12.7855 14.3725 13.0814C13.8555 13.3773 13.2722 13.527 12.6226 13.5304H10.3216ZM11.8522 7.3418V12.3008H12.5919C13.1906 12.3008 13.648 12.1053 13.9643 11.7141C14.2807 11.323 14.4422 10.7635 14.449 10.0356V9.64275C14.449 8.88767 14.2926 8.31626 13.9797 7.92851C13.6667 7.53737 13.2093 7.3418 12.6072 7.3418H11.8522Z" fill="white"/>
<rect x="4" y="4" width="12" height="12" fill="white" fill-opacity="0.01"/>
<defs>
<linearGradient id="paint0_linear_1_172" x1="20" y1="0" x2="0" y2="20" gradientUnits="userSpaceOnUse">
<stop stop-color="#7F02E1"/>
<stop offset="1" stop-color="#2E8EFF"/>
</linearGradient>
</defs>
</svg>
