<svg width="21" height="15" viewBox="0 0 21 15" fill="none" xmlns="http://www.w3.org/2000/svg">
<path d="M8.41671 10.625L13.823 7.50004L8.41671 4.37504V10.625ZM20.4584 2.46879C20.5938 2.95837 20.6875 3.61462 20.75 4.44796C20.823 5.28129 20.8542 6.00004 20.8542 6.62504L20.9167 7.50004C20.9167 9.78129 20.75 11.4584 20.4584 12.5313C20.198 13.4688 19.5938 14.073 18.6563 14.3334C18.1667 14.4688 17.2709 14.5625 15.8959 14.625C14.5417 14.698 13.3021 14.7292 12.1563 14.7292L10.5 14.7917C6.13546 14.7917 3.41671 14.625 2.34379 14.3334C1.40629 14.073 0.802124 13.4688 0.541707 12.5313C0.406291 12.0417 0.312541 11.3855 0.250041 10.5521C0.177124 9.71879 0.145874 9.00004 0.145874 8.37504L0.083374 7.50004C0.083374 5.21879 0.250041 3.54171 0.541707 2.46879C0.802124 1.53129 1.40629 0.927124 2.34379 0.666707C2.83337 0.531291 3.72921 0.437541 5.10421 0.375041C6.45837 0.302124 7.69796 0.270874 8.84379 0.270874L10.5 0.208374C14.8646 0.208374 17.5834 0.375041 18.6563 0.666707C19.5938 0.927124 20.198 1.53129 20.4584 2.46879Z" fill="#661FFF"/>
</svg>
