<svg width="21" height="21" viewBox="0 0 21 21" fill="none" xmlns="http://www.w3.org/2000/svg">
<path d="M6.12504 0.083374H14.875C18.2084 0.083374 20.9167 2.79171 20.9167 6.12504V14.875C20.9167 16.4774 20.2802 18.0141 19.1471 19.1471C18.0141 20.2802 16.4774 20.9167 14.875 20.9167H6.12504C2.79171 20.9167 0.083374 18.2084 0.083374 14.875V6.12504C0.083374 4.52269 0.719905 2.98597 1.85294 1.85294C2.98597 0.719905 4.52269 0.083374 6.12504 0.083374ZM5.91671 2.16671C4.92215 2.16671 3.96832 2.5618 3.26506 3.26506C2.5618 3.96832 2.16671 4.92215 2.16671 5.91671V15.0834C2.16671 17.1563 3.84379 18.8334 5.91671 18.8334H15.0834C16.0779 18.8334 17.0318 18.4383 17.735 17.735C18.4383 17.0318 18.8334 16.0779 18.8334 15.0834V5.91671C18.8334 3.84379 17.1563 2.16671 15.0834 2.16671H5.91671ZM15.9688 3.72921C16.3141 3.72921 16.6453 3.86639 16.8895 4.11058C17.1337 4.35477 17.2709 4.68596 17.2709 5.03129C17.2709 5.37663 17.1337 5.70782 16.8895 5.952C16.6453 6.19619 16.3141 6.33337 15.9688 6.33337C15.6235 6.33337 15.2923 6.19619 15.0481 5.952C14.8039 5.70782 14.6667 5.37663 14.6667 5.03129C14.6667 4.68596 14.8039 4.35477 15.0481 4.11058C15.2923 3.86639 15.6235 3.72921 15.9688 3.72921ZM10.5 5.29171C11.8814 5.29171 13.2061 5.84044 14.1829 6.81719C15.1596 7.79395 15.7084 9.11871 15.7084 10.5C15.7084 11.8814 15.1596 13.2061 14.1829 14.1829C13.2061 15.1596 11.8814 15.7084 10.5 15.7084C9.11871 15.7084 7.79395 15.1596 6.81719 14.1829C5.84044 13.2061 5.29171 11.8814 5.29171 10.5C5.29171 9.11871 5.84044 7.79395 6.81719 6.81719C7.79395 5.84044 9.11871 5.29171 10.5 5.29171ZM10.5 7.37504C9.67124 7.37504 8.87638 7.70428 8.29033 8.29033C7.70428 8.87638 7.37504 9.67124 7.37504 10.5C7.37504 11.3288 7.70428 12.1237 8.29033 12.7098C8.87638 13.2958 9.67124 13.625 10.5 13.625C11.3288 13.625 12.1237 13.2958 12.7098 12.7098C13.2958 12.1237 13.625 11.3288 13.625 10.5C13.625 9.67124 13.2958 8.87638 12.7098 8.29033C12.1237 7.70428 11.3288 7.37504 10.5 7.37504Z" fill="#661FFF"/>
</svg>
